<?xml version="1.0" standalone="no"?>
<!DOCTYPE svg PUBLIC "-//W3C//DTD SVG 20010904//EN"
 "http://www.w3.org/TR/2001/REC-SVG-20010904/DTD/svg10.dtd">
<svg version="1.0" xmlns="http://www.w3.org/2000/svg"
 width="512.000000pt" height="512.000000pt" viewBox="0 0 512.000000 512.000000"
 preserveAspectRatio="xMidYMid meet">

<g transform="translate(0.000000,512.000000) scale(0.100000,-0.100000)"
fill="#000000" stroke="none">
<path d="M757 4426 c-74 -20 -127 -63 -161 -129 -73 -142 -6 -311 143 -362 34
-12 93 -15 258 -15 l213 0 0 -22 c0 -13 52 -529 114 -1148 l114 -1124 26 -23
c15 -13 38 -23 52 -23 34 0 74 42 74 77 -1 15 -54 556 -118 1201 -113 1117
-119 1174 -140 1195 -22 21 -29 22 -283 25 -286 3 -295 5 -319 63 -18 42 0 99
39 122 26 15 65 17 371 17 377 0 384 -1 412 -62 11 -22 35 -223 73 -603 39
-386 62 -577 71 -592 17 -28 58 -39 93 -27 55 20 55 15 -4 605 -30 299 -59
571 -65 604 -19 113 -101 201 -210 224 -75 16 -691 13 -753 -3z"/>
<path d="M1970 3647 c-57 -29 -58 -113 -2 -136 19 -8 257 -11 825 -9 l799 3
19 24 c36 44 19 100 -35 121 -43 16 -1573 14 -1606 -3z"/>
<path d="M3770 3653 c-53 -20 -69 -93 -29 -129 19 -17 44 -19 294 -24 250 -5
275 -7 294 -24 14 -13 21 -31 21 -55 0 -20 -90 -371 -199 -781 -164 -616 -203
-747 -221 -762 -20 -16 -46 -18 -264 -18 -259 0 -281 -4 -303 -52 -17 -34 -1
-81 33 -97 32 -14 494 -15 545 -1 20 6 51 20 70 33 75 50 75 51 294 872 113
424 205 788 205 810 0 49 -37 131 -76 167 -63 59 -84 63 -379 65 -148 1 -277
0 -285 -4z"/>
<path d="M2352 3120 c-22 -21 -22 -22 -22 -435 l0 -414 27 -21 c33 -26 79 -21
106 11 16 19 17 55 17 424 0 392 -1 403 -21 429 -26 33 -75 35 -107 6z"/>
<path d="M2902 3117 c-22 -23 -22 -26 -22 -434 l0 -412 27 -21 c33 -26 79 -21
106 11 16 19 17 55 17 428 l0 408 -23 21 c-31 29 -77 29 -105 -1z"/>
<path d="M3452 3117 c-22 -23 -22 -26 -22 -434 l0 -412 27 -21 c33 -26 79 -21
106 11 16 19 17 55 17 428 l0 408 -23 21 c-31 29 -77 29 -105 -1z"/>
<path d="M1736 2869 c-21 -17 -26 -29 -26 -66 0 -40 112 -1196 124 -1283 l5
-35 -112 0 c-109 0 -114 -1 -177 -35 -326 -175 -289 -632 61 -750 81 -28 186
-24 272 10 94 37 194 140 228 233 l13 37 451 0 c491 0 485 -1 499 56 8 32 -9
79 -32 91 -10 4 -217 10 -462 13 l-444 5 -8 38 c-10 50 -51 128 -89 172 -29
33 -33 45 -45 153 -7 64 -13 134 -14 155 l0 37 595 0 c420 0 601 3 619 11 32
15 50 57 37 90 -21 56 6 54 -657 57 l-613 3 -5 32 c-3 18 -26 236 -50 484 -25
249 -50 462 -56 473 -11 20 -48 40 -74 40 -7 0 -25 -9 -40 -21z"/>
<path d="M2121 1489 c-55 -22 -68 -83 -26 -124 l24 -25 791 0 c434 0 790 -2
790 -4 0 -2 -14 -30 -30 -61 -17 -32 -33 -75 -36 -96 l-7 -39 -196 0 c-211 0
-236 -5 -258 -52 -17 -34 -1 -81 33 -97 16 -7 97 -11 227 -11 l202 0 34 -70
c57 -120 166 -199 306 -223 208 -36 418 119 455 336 39 224 -115 429 -350 466
-85 14 -1925 14 -1959 0z"/>
</g>
</svg>
